<mxfile host="app.diagrams.net" agent="Mozilla/5.0 (Windows NT 10.0; Win64; x64) AppleWebKit/537.36 (KHTML, like Gecko) Chrome/136.0.0.0 Safari/537.36 Edg/136.0.0.0" version="27.0.6">
  <diagram name="Страница — 1" id="hajgOn-ajpgOAB7Y3Ema">
    <mxGraphModel dx="2546" dy="1072" grid="1" gridSize="10" guides="1" tooltips="1" connect="1" arrows="1" fold="1" page="1" pageScale="1" pageWidth="1654" pageHeight="1169" math="0" shadow="0">
      <root>
        <mxCell id="0" />
        <mxCell id="1" parent="0" />
        <mxCell id="Cxsap39bgoqfINTX-O5f-25" value="&lt;span style=&quot;font-size: 12px;&quot;&gt;BaseViewModel&lt;/span&gt;" style="swimlane;childLayout=stackLayout;horizontal=1;startSize=50;horizontalStack=0;rounded=1;fontSize=14;fontStyle=0;strokeWidth=2;resizeParent=0;resizeLast=1;shadow=0;dashed=0;align=center;arcSize=4;whiteSpace=wrap;html=1;" vertex="1" parent="1">
          <mxGeometry x="360" y="450" width="330" height="100" as="geometry" />
        </mxCell>
        <mxCell id="Cxsap39bgoqfINTX-O5f-26" value="&lt;div&gt;+PropertyChangedEventHandler&amp;nbsp;PropertyChanged&lt;/div&gt;-void OnPropertyChanged(string propertyName)" style="align=left;strokeColor=none;fillColor=none;spacingLeft=4;spacingRight=4;fontSize=12;verticalAlign=top;resizable=0;rotatable=0;part=1;html=1;whiteSpace=wrap;" vertex="1" parent="Cxsap39bgoqfINTX-O5f-25">
          <mxGeometry y="50" width="330" height="50" as="geometry" />
        </mxCell>
        <mxCell id="Cxsap39bgoqfINTX-O5f-31" value="" style="edgeStyle=orthogonalEdgeStyle;rounded=0;orthogonalLoop=1;jettySize=auto;html=1;" edge="1" parent="1" source="Cxsap39bgoqfINTX-O5f-28" target="Cxsap39bgoqfINTX-O5f-26">
          <mxGeometry relative="1" as="geometry" />
        </mxCell>
        <mxCell id="Cxsap39bgoqfINTX-O5f-28" value="&lt;span style=&quot;font-size: 12px;&quot;&gt;NavigationServiceViewModel&lt;/span&gt;" style="swimlane;childLayout=stackLayout;horizontal=1;startSize=50;horizontalStack=0;rounded=1;fontSize=14;fontStyle=0;strokeWidth=2;resizeParent=0;resizeLast=1;shadow=0;dashed=0;align=center;arcSize=4;whiteSpace=wrap;html=1;" vertex="1" parent="1">
          <mxGeometry x="360" y="630" width="330" height="280" as="geometry" />
        </mxCell>
        <mxCell id="Cxsap39bgoqfINTX-O5f-29" value="-&lt;span style=&quot;background-color: transparent;&quot;&gt;INavigationService _navigationService&lt;/span&gt;&lt;div&gt;+bool&amp;nbsp;IsCatalogPage&lt;/div&gt;&lt;div&gt;+string&amp;nbsp;UserLoginText&lt;/div&gt;&lt;div&gt;+string&amp;nbsp;UserLogin&lt;/div&gt;&lt;div&gt;+bool IsAdmin&lt;/div&gt;&lt;div&gt;+bool&amp;nbsp;IsManager&lt;/div&gt;&lt;div&gt;+bool&amp;nbsp;IsUserLoggedIn&lt;/div&gt;&lt;div&gt;+ICommand&amp;nbsp;NavigateCommand&lt;/div&gt;&lt;div&gt;+ICommand&amp;nbsp;GoBackCommand&lt;/div&gt;&lt;div&gt;+ICommand&amp;nbsp;GoForwardCommand&lt;/div&gt;&lt;div&gt;&lt;br&gt;&lt;/div&gt;&lt;div&gt;-void&amp;nbsp;OnUserStatusChanged()&lt;/div&gt;&lt;div&gt;-void&amp;nbsp;UpdateLoginText()&lt;/div&gt;&lt;div&gt;+void&amp;nbsp;GoBack(object parameter)&lt;/div&gt;&lt;div&gt;+void&amp;nbsp;GoForward(object parameter)&lt;/div&gt;" style="align=left;strokeColor=none;fillColor=none;spacingLeft=4;spacingRight=4;fontSize=12;verticalAlign=top;resizable=0;rotatable=0;part=1;html=1;whiteSpace=wrap;" vertex="1" parent="Cxsap39bgoqfINTX-O5f-28">
          <mxGeometry y="50" width="330" height="230" as="geometry" />
        </mxCell>
        <mxCell id="Cxsap39bgoqfINTX-O5f-34" value="" style="edgeStyle=orthogonalEdgeStyle;rounded=0;orthogonalLoop=1;jettySize=auto;html=1;" edge="1" parent="1" source="Cxsap39bgoqfINTX-O5f-32" target="Cxsap39bgoqfINTX-O5f-29">
          <mxGeometry relative="1" as="geometry" />
        </mxCell>
        <mxCell id="Cxsap39bgoqfINTX-O5f-32" value="&lt;span style=&quot;font-size: 12px;&quot;&gt;NavigationServiceViewModel&lt;/span&gt;" style="swimlane;childLayout=stackLayout;horizontal=1;startSize=50;horizontalStack=0;rounded=1;fontSize=14;fontStyle=0;strokeWidth=2;resizeParent=0;resizeLast=1;shadow=0;dashed=0;align=center;arcSize=4;whiteSpace=wrap;html=1;" vertex="1" parent="1">
          <mxGeometry x="322" y="978" width="406" height="122" as="geometry" />
        </mxCell>
        <mxCell id="Cxsap39bgoqfINTX-O5f-33" value="+ObservableCollection&amp;lt;ClothingItem&amp;gt;&amp;nbsp;RecommendationsItems&lt;div&gt;+ObservableCollection&amp;lt;ClothingItem&amp;gt;&amp;nbsp;FavoritesItems&lt;span style=&quot;white-space: pre;&quot;&gt;&#x9;&lt;/span&gt;&lt;/div&gt;&lt;div&gt;-void LoadData()&lt;/div&gt;&lt;div&gt;&lt;br&gt;&lt;/div&gt;&lt;div&gt;&lt;br&gt;&lt;/div&gt;" style="align=left;strokeColor=none;fillColor=none;spacingLeft=4;spacingRight=4;fontSize=12;verticalAlign=top;resizable=0;rotatable=0;part=1;html=1;whiteSpace=wrap;" vertex="1" parent="Cxsap39bgoqfINTX-O5f-32">
          <mxGeometry y="50" width="406" height="72" as="geometry" />
        </mxCell>
        <mxCell id="Cxsap39bgoqfINTX-O5f-37" value="" style="edgeStyle=orthogonalEdgeStyle;rounded=0;orthogonalLoop=1;jettySize=auto;html=1;entryX=0;entryY=0.5;entryDx=0;entryDy=0;" edge="1" parent="1" source="Cxsap39bgoqfINTX-O5f-35" target="Cxsap39bgoqfINTX-O5f-25">
          <mxGeometry relative="1" as="geometry">
            <mxPoint x="240" y="480" as="targetPoint" />
            <Array as="points">
              <mxPoint x="230" y="1300" />
              <mxPoint x="230" y="500" />
            </Array>
          </mxGeometry>
        </mxCell>
        <mxCell id="Cxsap39bgoqfINTX-O5f-35" value="&lt;span style=&quot;font-size: 12px;&quot;&gt;BaseWindowViewModel&lt;/span&gt;" style="swimlane;childLayout=stackLayout;horizontal=1;startSize=50;horizontalStack=0;rounded=1;fontSize=14;fontStyle=0;strokeWidth=2;resizeParent=0;resizeLast=1;shadow=0;dashed=0;align=center;arcSize=4;whiteSpace=wrap;html=1;" vertex="1" parent="1">
          <mxGeometry x="330" y="1350" width="406" height="130" as="geometry" />
        </mxCell>
        <mxCell id="Cxsap39bgoqfINTX-O5f-36" value="&lt;div&gt;+ICommand&amp;nbsp;CloseWindowCommand&lt;/div&gt;&lt;div&gt;+ICommand&amp;nbsp;DragMoveCommand&lt;/div&gt;&lt;div&gt;-void&amp;nbsp;DragWindow(object parameter)&lt;/div&gt;&lt;div&gt;-void&amp;nbsp;CloseWindow(object parameter)&lt;/div&gt;" style="align=left;strokeColor=none;fillColor=none;spacingLeft=4;spacingRight=4;fontSize=12;verticalAlign=top;resizable=0;rotatable=0;part=1;html=1;whiteSpace=wrap;" vertex="1" parent="Cxsap39bgoqfINTX-O5f-35">
          <mxGeometry y="50" width="406" height="80" as="geometry" />
        </mxCell>
        <mxCell id="Cxsap39bgoqfINTX-O5f-39" value="&lt;span style=&quot;font-size: 12px;&quot;&gt;App&lt;/span&gt;" style="swimlane;childLayout=stackLayout;horizontal=1;startSize=50;horizontalStack=0;rounded=1;fontSize=14;fontStyle=0;strokeWidth=2;resizeParent=0;resizeLast=1;shadow=0;dashed=0;align=center;arcSize=4;whiteSpace=wrap;html=1;" vertex="1" parent="1">
          <mxGeometry x="800" y="450" width="330" height="100" as="geometry" />
        </mxCell>
        <mxCell id="Cxsap39bgoqfINTX-O5f-40" value="+string&amp;nbsp;HashPassword(string password)&lt;div&gt;+DateTime GetRandomDate()&lt;/div&gt;" style="align=left;strokeColor=none;fillColor=none;spacingLeft=4;spacingRight=4;fontSize=12;verticalAlign=top;resizable=0;rotatable=0;part=1;html=1;whiteSpace=wrap;" vertex="1" parent="Cxsap39bgoqfINTX-O5f-39">
          <mxGeometry y="50" width="330" height="50" as="geometry" />
        </mxCell>
        <mxCell id="Cxsap39bgoqfINTX-O5f-41" value="&lt;span style=&quot;font-size: 12px;&quot;&gt;User&lt;/span&gt;" style="swimlane;childLayout=stackLayout;horizontal=1;startSize=50;horizontalStack=0;rounded=1;fontSize=14;fontStyle=0;strokeWidth=2;resizeParent=0;resizeLast=1;shadow=0;dashed=0;align=center;arcSize=4;whiteSpace=wrap;html=1;" vertex="1" parent="1">
          <mxGeometry x="1290" y="450" width="330" height="310" as="geometry" />
        </mxCell>
        <mxCell id="Cxsap39bgoqfINTX-O5f-42" value="+int&amp;nbsp;UserId&lt;div&gt;+string&amp;nbsp;Email&lt;/div&gt;&lt;div&gt;+string&amp;nbsp;Login&lt;/div&gt;&lt;div&gt;+string&amp;nbsp;PasswordHash&lt;/div&gt;&lt;div&gt;+int&amp;nbsp;RoleId&lt;/div&gt;&lt;div&gt;+UserRole&amp;nbsp;UserRole&lt;/div&gt;&lt;div&gt;+&amp;nbsp;UserProfile Profile&lt;/div&gt;&lt;div&gt;+&amp;nbsp;ICollection&amp;lt;Comment&amp;gt; Comments&lt;/div&gt;&lt;div&gt;+&amp;nbsp;ICollection&amp;lt;CartItem&amp;gt; CartItems&lt;/div&gt;&lt;div&gt;+&amp;nbsp;ICollection&amp;lt;UserFavorite&amp;gt; Favorites&lt;/div&gt;&lt;div&gt;+List&amp;lt;Order&amp;gt; Orders&lt;/div&gt;&lt;div&gt;&lt;br&gt;&lt;/div&gt;&lt;div&gt;+IEnumerable&amp;lt;ValidationResult&amp;gt; Validate(ValidationContext validationContext)&lt;/div&gt;" style="align=left;strokeColor=none;fillColor=none;spacingLeft=4;spacingRight=4;fontSize=12;verticalAlign=top;resizable=0;rotatable=0;part=1;html=1;whiteSpace=wrap;" vertex="1" parent="Cxsap39bgoqfINTX-O5f-41">
          <mxGeometry y="50" width="330" height="260" as="geometry" />
        </mxCell>
        <mxCell id="Cxsap39bgoqfINTX-O5f-43" value="&lt;span style=&quot;font-size: 12px;&quot;&gt;ClothingItem&lt;/span&gt;" style="swimlane;childLayout=stackLayout;horizontal=1;startSize=50;horizontalStack=0;rounded=1;fontSize=14;fontStyle=0;strokeWidth=2;resizeParent=0;resizeLast=1;shadow=0;dashed=0;align=center;arcSize=4;whiteSpace=wrap;html=1;" vertex="1" parent="1">
          <mxGeometry x="1280" y="780" width="330" height="370" as="geometry" />
        </mxCell>
        <mxCell id="Cxsap39bgoqfINTX-O5f-44" value="+ObservableCollection&amp;lt;string&amp;gt; ImagePaths&lt;div&gt;-string DefaultImagePath&lt;/div&gt;&lt;div&gt;+int ProductId&lt;/div&gt;&lt;div&gt;+string ShortName&lt;/div&gt;&lt;div&gt;+string FullName&lt;/div&gt;&lt;div&gt;+string Description&lt;/div&gt;&lt;div&gt;+string Images&lt;/div&gt;&lt;div&gt;+string Category&lt;/div&gt;&lt;div&gt;+string Color&lt;/div&gt;&lt;div&gt;+string Size&lt;/div&gt;&lt;div&gt;+string DeliveryCountry&lt;/div&gt;&lt;div&gt;+decimal Price&lt;/div&gt;&lt;div&gt;+string Compound&lt;/div&gt;&lt;div&gt;+int SalesCount&lt;/div&gt;&lt;div&gt;+int Quantity&lt;/div&gt;&lt;div&gt;+float Rating&lt;/div&gt;&lt;div&gt;+List&amp;lt;Comment&amp;gt; Comments&lt;/div&gt;&lt;div&gt;+ICollection&amp;lt;CartItem&amp;gt; CartItems&lt;/div&gt;&lt;div&gt;&lt;br&gt;&lt;/div&gt;&lt;div&gt;-void OnPropertyChanged(string propertyName)&lt;/div&gt;&lt;div&gt;+string ToString()&lt;/div&gt;" style="align=left;strokeColor=none;fillColor=none;spacingLeft=4;spacingRight=4;fontSize=12;verticalAlign=top;resizable=0;rotatable=0;part=1;html=1;whiteSpace=wrap;" vertex="1" parent="Cxsap39bgoqfINTX-O5f-43">
          <mxGeometry y="50" width="330" height="320" as="geometry" />
        </mxCell>
        <mxCell id="Cxsap39bgoqfINTX-O5f-45" value="&lt;span style=&quot;font-size: 12px;&quot;&gt;Comment&lt;/span&gt;" style="swimlane;childLayout=stackLayout;horizontal=1;startSize=50;horizontalStack=0;rounded=1;fontSize=14;fontStyle=0;strokeWidth=2;resizeParent=0;resizeLast=1;shadow=0;dashed=0;align=center;arcSize=4;whiteSpace=wrap;html=1;" vertex="1" parent="1">
          <mxGeometry x="1280" y="1180" width="330" height="170" as="geometry" />
        </mxCell>
        <mxCell id="Cxsap39bgoqfINTX-O5f-46" value="+int CommentId&lt;div&gt;+int ProductId&lt;/div&gt;&lt;div&gt;+int? UserId&lt;/div&gt;&lt;div&gt;+string Text&lt;/div&gt;&lt;div&gt;+decimal Rate&lt;/div&gt;&lt;div&gt;+ClothingItem ClothingItem&lt;/div&gt;&lt;div&gt;+User User&lt;/div&gt;" style="align=left;strokeColor=none;fillColor=none;spacingLeft=4;spacingRight=4;fontSize=12;verticalAlign=top;resizable=0;rotatable=0;part=1;html=1;whiteSpace=wrap;" vertex="1" parent="Cxsap39bgoqfINTX-O5f-45">
          <mxGeometry y="50" width="330" height="120" as="geometry" />
        </mxCell>
        <mxCell id="Cxsap39bgoqfINTX-O5f-51" value="&lt;span style=&quot;font-size: 12px;&quot;&gt;LoginWindowViewModel&lt;/span&gt;" style="swimlane;childLayout=stackLayout;horizontal=1;startSize=50;horizontalStack=0;rounded=1;fontSize=14;fontStyle=0;strokeWidth=2;resizeParent=0;resizeLast=1;shadow=0;dashed=0;align=center;arcSize=4;whiteSpace=wrap;html=1;" vertex="1" parent="1">
          <mxGeometry x="800" y="600" width="330" height="200" as="geometry" />
        </mxCell>
        <mxCell id="Cxsap39bgoqfINTX-O5f-52" value="+string LoginName&lt;div&gt;+string Password&lt;/div&gt;&lt;div&gt;+string LoginError&lt;/div&gt;&lt;div&gt;+string PasswordError&lt;/div&gt;&lt;div&gt;+ICommand OpenRegistrationCommand&lt;/div&gt;&lt;div&gt;+ICommand LoginCommand&lt;/div&gt;&lt;div&gt;&lt;br&gt;&lt;/div&gt;&lt;div&gt;-void OpenRegistration(object parameter)&lt;/div&gt;&lt;div&gt;-void Login(object parameter)&lt;/div&gt;" style="align=left;strokeColor=none;fillColor=none;spacingLeft=4;spacingRight=4;fontSize=12;verticalAlign=top;resizable=0;rotatable=0;part=1;html=1;whiteSpace=wrap;" vertex="1" parent="Cxsap39bgoqfINTX-O5f-51">
          <mxGeometry y="50" width="330" height="150" as="geometry" />
        </mxCell>
        <mxCell id="Cxsap39bgoqfINTX-O5f-55" value="&lt;span style=&quot;font-size: 12px;&quot;&gt;RegisterWindowViewModel&lt;/span&gt;" style="swimlane;childLayout=stackLayout;horizontal=1;startSize=50;horizontalStack=0;rounded=1;fontSize=14;fontStyle=0;strokeWidth=2;resizeParent=0;resizeLast=1;shadow=0;dashed=0;align=center;arcSize=4;whiteSpace=wrap;html=1;" vertex="1" parent="1">
          <mxGeometry x="810" y="830" width="330" height="250" as="geometry" />
        </mxCell>
        <mxCell id="Cxsap39bgoqfINTX-O5f-56" value="+string LoginName&lt;div&gt;+string Email&lt;/div&gt;&lt;div&gt;+string Password&lt;/div&gt;&lt;div&gt;+string RepeatPassword&lt;/div&gt;&lt;div&gt;+string LoginError&lt;/div&gt;&lt;div&gt;+string EmailError&lt;/div&gt;&lt;div&gt;+string PasswordError&lt;/div&gt;&lt;div&gt;+string RepeatPasswordError&lt;/div&gt;&lt;div&gt;+ICommand OpenLoginCommand&lt;/div&gt;&lt;div&gt;+ICommand RegisterCommand&lt;/div&gt;&lt;div&gt;&lt;br&gt;&lt;/div&gt;&lt;div&gt;-void OpenLogin(object parameter)&lt;/div&gt;&lt;div&gt;-void Register(object parameter)&lt;/div&gt;" style="align=left;strokeColor=none;fillColor=none;spacingLeft=4;spacingRight=4;fontSize=12;verticalAlign=top;resizable=0;rotatable=0;part=1;html=1;whiteSpace=wrap;" vertex="1" parent="Cxsap39bgoqfINTX-O5f-55">
          <mxGeometry y="50" width="330" height="200" as="geometry" />
        </mxCell>
        <mxCell id="Cxsap39bgoqfINTX-O5f-57" style="edgeStyle=orthogonalEdgeStyle;rounded=0;orthogonalLoop=1;jettySize=auto;html=1;entryX=0.5;entryY=0;entryDx=0;entryDy=0;" edge="1" parent="1" source="Cxsap39bgoqfINTX-O5f-52" target="Cxsap39bgoqfINTX-O5f-35">
          <mxGeometry relative="1" as="geometry">
            <Array as="points">
              <mxPoint x="760" y="725" />
              <mxPoint x="760" y="1300" />
              <mxPoint x="533" y="1300" />
            </Array>
          </mxGeometry>
        </mxCell>
        <mxCell id="Cxsap39bgoqfINTX-O5f-58" style="edgeStyle=orthogonalEdgeStyle;rounded=0;orthogonalLoop=1;jettySize=auto;html=1;entryX=0.5;entryY=0;entryDx=0;entryDy=0;" edge="1" parent="1" source="Cxsap39bgoqfINTX-O5f-56" target="Cxsap39bgoqfINTX-O5f-35">
          <mxGeometry relative="1" as="geometry">
            <Array as="points">
              <mxPoint x="760" y="955" />
              <mxPoint x="760" y="1300" />
              <mxPoint x="533" y="1300" />
            </Array>
          </mxGeometry>
        </mxCell>
        <mxCell id="Cxsap39bgoqfINTX-O5f-65" style="edgeStyle=orthogonalEdgeStyle;rounded=0;orthogonalLoop=1;jettySize=auto;html=1;entryX=1;entryY=0;entryDx=0;entryDy=0;" edge="1" parent="1" source="Cxsap39bgoqfINTX-O5f-59" target="Cxsap39bgoqfINTX-O5f-64">
          <mxGeometry relative="1" as="geometry" />
        </mxCell>
        <mxCell id="Cxsap39bgoqfINTX-O5f-59" value="&lt;span style=&quot;font-size: 12px;&quot;&gt;MainPageViewModel&lt;/span&gt;" style="swimlane;childLayout=stackLayout;horizontal=1;startSize=50;horizontalStack=0;rounded=1;fontSize=14;fontStyle=0;strokeWidth=2;resizeParent=0;resizeLast=1;shadow=0;dashed=0;align=center;arcSize=4;whiteSpace=wrap;html=1;" vertex="1" parent="1">
          <mxGeometry x="810" y="1120" width="330" height="80" as="geometry" />
        </mxCell>
        <mxCell id="Cxsap39bgoqfINTX-O5f-60" value="+ObservableCollection&amp;lt;ClothingItem&amp;gt; PopularItems" style="align=left;strokeColor=none;fillColor=none;spacingLeft=4;spacingRight=4;fontSize=12;verticalAlign=top;resizable=0;rotatable=0;part=1;html=1;whiteSpace=wrap;" vertex="1" parent="Cxsap39bgoqfINTX-O5f-59">
          <mxGeometry y="50" width="330" height="30" as="geometry" />
        </mxCell>
        <mxCell id="Cxsap39bgoqfINTX-O5f-66" value="" style="edgeStyle=orthogonalEdgeStyle;rounded=0;orthogonalLoop=1;jettySize=auto;html=1;" edge="1" parent="1" source="Cxsap39bgoqfINTX-O5f-63" target="Cxsap39bgoqfINTX-O5f-33">
          <mxGeometry relative="1" as="geometry" />
        </mxCell>
        <mxCell id="Cxsap39bgoqfINTX-O5f-63" value="&lt;span style=&quot;font-size: 12px;&quot;&gt;RecomendationViewModel&lt;/span&gt;" style="swimlane;childLayout=stackLayout;horizontal=1;startSize=50;horizontalStack=0;rounded=1;fontSize=14;fontStyle=0;strokeWidth=2;resizeParent=0;resizeLast=1;shadow=0;dashed=0;align=center;arcSize=4;whiteSpace=wrap;html=1;" vertex="1" parent="1">
          <mxGeometry x="322" y="1130" width="406" height="110" as="geometry" />
        </mxCell>
        <mxCell id="Cxsap39bgoqfINTX-O5f-64" value="+ObservableCollection&amp;lt;ClothingItem&amp;gt; RecommendationsItems&lt;div&gt;+ObservableCollection&amp;lt;ClothingItem&amp;gt; FavoritesItems&lt;/div&gt;&lt;div&gt;-void LoadData()&lt;/div&gt;" style="align=left;strokeColor=none;fillColor=none;spacingLeft=4;spacingRight=4;fontSize=12;verticalAlign=top;resizable=0;rotatable=0;part=1;html=1;whiteSpace=wrap;" vertex="1" parent="Cxsap39bgoqfINTX-O5f-63">
          <mxGeometry y="50" width="406" height="60" as="geometry" />
        </mxCell>
        <mxCell id="Cxsap39bgoqfINTX-O5f-67" value="&lt;div&gt;&lt;span style=&quot;font-size: 12px;&quot;&gt;CatalogPageViewModel&lt;/span&gt;&lt;/div&gt;" style="swimlane;childLayout=stackLayout;horizontal=1;startSize=50;horizontalStack=0;rounded=1;fontSize=14;fontStyle=0;strokeWidth=2;resizeParent=0;resizeLast=1;shadow=0;dashed=0;align=center;arcSize=4;whiteSpace=wrap;html=1;" vertex="1" parent="1">
          <mxGeometry x="810" y="1260" width="330" height="190" as="geometry" />
        </mxCell>
        <mxCell id="Cxsap39bgoqfINTX-O5f-68" value="+ICommand ApplyFiltersCommand&lt;div&gt;+ICommand EditItemCommand&lt;/div&gt;&lt;div&gt;+ICommand ChangeLanguageCommand&lt;/div&gt;&lt;div&gt;+Dictionary&amp;lt;string, string&amp;gt; FilterError&lt;/div&gt;&lt;div&gt;&lt;br&gt;&lt;/div&gt;&lt;div&gt;-void ClearValidationErrors()&lt;/div&gt;&lt;div&gt;-void SetValidationError(string field, string message)&lt;/div&gt;&lt;div&gt;-void ApplyFilters(object parameter)&lt;/div&gt;" style="align=left;strokeColor=none;fillColor=none;spacingLeft=4;spacingRight=4;fontSize=12;verticalAlign=top;resizable=0;rotatable=0;part=1;html=1;whiteSpace=wrap;" vertex="1" parent="Cxsap39bgoqfINTX-O5f-67">
          <mxGeometry y="50" width="330" height="140" as="geometry" />
        </mxCell>
        <mxCell id="Cxsap39bgoqfINTX-O5f-74" value="" style="edgeStyle=entityRelationEdgeStyle;fontSize=12;html=1;endArrow=ERmandOne;startArrow=ERmandOne;rounded=0;entryX=0;entryY=0.5;entryDx=0;entryDy=0;exitX=1;exitY=0.5;exitDx=0;exitDy=0;" edge="1" parent="1" source="Cxsap39bgoqfINTX-O5f-52" target="Cxsap39bgoqfINTX-O5f-42">
          <mxGeometry width="100" height="100" relative="1" as="geometry">
            <mxPoint x="1060" y="770" as="sourcePoint" />
            <mxPoint x="1160" y="670" as="targetPoint" />
          </mxGeometry>
        </mxCell>
        <mxCell id="Cxsap39bgoqfINTX-O5f-75" value="" style="edgeStyle=entityRelationEdgeStyle;fontSize=12;html=1;endArrow=ERmandOne;startArrow=ERmandOne;rounded=0;exitX=1;exitY=0.454;exitDx=0;exitDy=0;exitPerimeter=0;entryX=0;entryY=0.5;entryDx=0;entryDy=0;" edge="1" parent="1" source="Cxsap39bgoqfINTX-O5f-56" target="Cxsap39bgoqfINTX-O5f-42">
          <mxGeometry width="100" height="100" relative="1" as="geometry">
            <mxPoint x="1280" y="815" as="sourcePoint" />
            <mxPoint x="1309" y="620" as="targetPoint" />
          </mxGeometry>
        </mxCell>
        <mxCell id="Cxsap39bgoqfINTX-O5f-76" value="" style="edgeStyle=entityRelationEdgeStyle;fontSize=12;html=1;endArrow=ERmandOne;startArrow=ERmandOne;rounded=0;exitX=1;exitY=0;exitDx=0;exitDy=0;entryX=0;entryY=0.5;entryDx=0;entryDy=0;" edge="1" parent="1" source="Cxsap39bgoqfINTX-O5f-60" target="Cxsap39bgoqfINTX-O5f-44">
          <mxGeometry width="100" height="100" relative="1" as="geometry">
            <mxPoint x="1210" y="1341" as="sourcePoint" />
            <mxPoint x="1379" y="990" as="targetPoint" />
          </mxGeometry>
        </mxCell>
        <mxCell id="Cxsap39bgoqfINTX-O5f-79" value="&lt;span style=&quot;font-size: 12px;&quot;&gt;Order&lt;/span&gt;" style="swimlane;childLayout=stackLayout;horizontal=1;startSize=50;horizontalStack=0;rounded=1;fontSize=14;fontStyle=0;strokeWidth=2;resizeParent=0;resizeLast=1;shadow=0;dashed=0;align=center;arcSize=4;whiteSpace=wrap;html=1;" vertex="1" parent="1">
          <mxGeometry x="1280" y="1380" width="330" height="200" as="geometry" />
        </mxCell>
        <mxCell id="Cxsap39bgoqfINTX-O5f-80" value="+int OrderId&lt;div&gt;+int UserId&lt;/div&gt;&lt;div&gt;+string DeliveryMethod&lt;/div&gt;&lt;div&gt;+string Address&lt;/div&gt;&lt;div&gt;+DateTime OrderDate&lt;/div&gt;&lt;div&gt;+DateTime? NearestDeliveryDate&lt;/div&gt;&lt;div&gt;+string Status&lt;/div&gt;&lt;div&gt;+ICollection&amp;lt;OrderItem&amp;gt; OrderItems&lt;/div&gt;&lt;div&gt;+User User&lt;/div&gt;" style="align=left;strokeColor=none;fillColor=none;spacingLeft=4;spacingRight=4;fontSize=12;verticalAlign=top;resizable=0;rotatable=0;part=1;html=1;whiteSpace=wrap;" vertex="1" parent="Cxsap39bgoqfINTX-O5f-79">
          <mxGeometry y="50" width="330" height="150" as="geometry" />
        </mxCell>
      </root>
    </mxGraphModel>
  </diagram>
</mxfile>
